<svg id="Layer_1" data-name="Layer 1" xmlns="http://www.w3.org/2000/svg" xmlns:xlink="http://www.w3.org/1999/xlink" viewBox="0 0 82.69 82.69"><defs><clipPath id="clip-path" transform="translate(-8.65 -8.65)"><path d="M77.72,64.08h0c-.26,0-.5,0-.75,0L51.19,38.35a6.48,6.48,0,0,0-6.7-1.52l4-11.79a6.75,6.75,0,0,0-1.46-6.26l-8.42-8.42a6.74,6.74,0,0,0-6.26-1.46l-5.05,1.72A2.05,2.05,0,0,0,25.84,12a2,2,0,0,0,.74,1.85L32,19.23a4.94,4.94,0,0,1,0,7L26.19,32a4.93,4.93,0,0,1-7,0l-5.4-5.4A2,2,0,0,0,12,25.84a2.07,2.07,0,0,0-1.33,1.49L8.91,32.38a6.74,6.74,0,0,0,1.46,6.26l8.43,8.42A6.74,6.74,0,0,0,25,48.52l11.8-4a6.49,6.49,0,0,0,1.52,6.7L64.12,77c0,.25,0,.5,0,.76A13.63,13.63,0,1,0,77.72,64.08Zm0,20.78a7.15,7.15,0,0,1-7.15-7.15,7.15,7.15,0,0,1,7.15-7.15,7.15,7.15,0,0,1,0,14.29" fill="none"/></clipPath><clipPath id="clip-path-2" transform="translate(-8.65 -8.65)"><rect width="100" height="100" fill="none"/></clipPath></defs><title>frameworks</title><g clip-path="url(#clip-path)"><g clip-path="url(#clip-path-2)"><rect width="82.69" height="82.69" fill="#fff"/></g></g></svg>