<svg id="Layer_1" data-name="Layer 1" xmlns="http://www.w3.org/2000/svg" xmlns:xlink="http://www.w3.org/1999/xlink" viewBox="0 0 88.05 88.05"><defs><clipPath id="clip-path" transform="translate(-5.98 -5.98)"><rect width="100" height="100" fill="none"/></clipPath><clipPath id="clip-path-2" transform="translate(-5.98 -5.98)"><path d="M54.89,80.66a5.23,5.23,0,0,1-1.45,3.62,5.25,5.25,0,0,1-7.53,0,5.25,5.25,0,0,1,0-7.24,5.25,5.25,0,0,1,7.53,0A5.23,5.23,0,0,1,54.89,80.66Zm-2.51-13.9H45.63V61a17.55,17.55,0,0,1,.63-4.88A14.89,14.89,0,0,1,48,52.18,18.51,18.51,0,0,1,50.5,49q1.4-1.4,2.85-2.75l2.7-2.41a18.06,18.06,0,0,0,4-4.44,11.5,11.5,0,0,0,1.59-6.27,11.54,11.54,0,0,0-1-4.83,10.47,10.47,0,0,0-2.61-3.57,11.54,11.54,0,0,0-3.81-2.22,13.88,13.88,0,0,0-4.68-.77A11.52,11.52,0,0,0,41.14,25a14.1,14.1,0,0,0-4,8.11l-6.56-1.16a19.61,19.61,0,0,1,6.61-11.83,19.19,19.19,0,0,1,12.69-4.3,23.51,23.51,0,0,1,7.29,1.11,16.92,16.92,0,0,1,5.94,3.28,16,16,0,0,1,4,5.36,16.84,16.84,0,0,1,1.5,7.24,19.39,19.39,0,0,1-.68,5.41A15.29,15.29,0,0,1,66,42.33a17.53,17.53,0,0,1-2.85,3.33q-1.64,1.5-3.48,3-2,1.64-3.43,3A13.16,13.16,0,0,0,54,54.54a11.16,11.16,0,0,0-1.25,3.33,21.9,21.9,0,0,0-.39,4.44Z" fill="none"/></clipPath></defs><title>guide</title><g clip-path="url(#clip-path)"><circle cx="50" cy="50" r="42.02" transform="translate(-26.69 44.02) rotate(-45)" fill="none" stroke-dasharray="200 0 200 0" stroke-linecap="round" stroke-linejoin="round" stroke-dashoffset="40" stroke-width="4" stroke="#fff"/></g><g clip-path="url(#clip-path-2)"><g clip-path="url(#clip-path)"><rect x="24.59" y="9.81" width="41.9" height="70.08" fill="#fff"/></g></g></svg>