<svg id="Layer_1" data-name="Layer 1" xmlns="http://www.w3.org/2000/svg" xmlns:xlink="http://www.w3.org/1999/xlink" viewBox="0 0 86.92 87.14"><defs><clipPath id="clip-path" transform="translate(-6.54 -6.43)"><path d="M44.88,78.17,80.19,37.8,66.25,25.32,44.1,50.17l-10.46-8.1L20.15,57.25Zm5.06,9.56a37.73,37.73,0,0,1,.23-75.45A37.31,37.31,0,0,1,87.72,49.72,37.69,37.69,0,0,1,49.94,87.72ZM6.54,50.17c0,22.71,18.67,43.4,43.63,43.4,24.51,0,43.29-20.24,43.29-43.4A43.38,43.38,0,0,0,49.94,6.43C25.77,6.43,6.54,26.78,6.54,50.17Z" fill="none"/></clipPath><clipPath id="clip-path-2" transform="translate(-6.54 -6.43)"><rect width="100" height="100" fill="none"/></clipPath></defs><title>healty</title><g clip-path="url(#clip-path)"><g clip-path="url(#clip-path-2)"><rect width="86.92" height="87.14" fill="#fff"/></g></g></svg>