<svg id="Layer_1" data-name="Layer 1" xmlns="http://www.w3.org/2000/svg" xmlns:xlink="http://www.w3.org/1999/xlink" viewBox="0 0 78.99 86.22"><defs><clipPath id="clip-path" transform="translate(-10.51 -6.89)"><path d="M89.49,77.06c0-2.26-1.14-4.4-3.21-6.35h.21l.06-33.58c0-8.77-6.45-15.87-14.43-15.87h-9V14.05H62c2.31-.76,3.7-1.75,3.7-2.83,0-2.39-6.78-4.33-15.15-4.33S35.36,8.83,35.36,11.22c0,1.08,1.39,2.08,3.7,2.83h-.78v7.21H28.81c-8,0-14.43,7.1-14.43,15.87l-.81,33.5h.23c-2.12,2-3.29,4.14-3.29,6.43,0,8.86,17.68,16,39.5,16S89.49,85.93,89.49,77.06ZM28.17,63.69S25.29,50,28.81,37.14c2.85-10.44,40.61-10.49,43.31,0,3.31,12.86,0,26.62,0,26.62A84.78,84.78,0,0,0,50,61a84.92,84.92,0,0,0-21.83,2.68" fill="none"/></clipPath><clipPath id="clip-path-2" transform="translate(-10.51 -6.89)"><rect width="100" height="100" fill="none"/></clipPath></defs><title>hearing</title><g clip-path="url(#clip-path)"><g clip-path="url(#clip-path-2)"><rect width="78.99" height="86.22" fill="#fff"/></g></g></svg>