<svg id="Layer_1" data-name="Layer 1" xmlns="http://www.w3.org/2000/svg" xmlns:xlink="http://www.w3.org/1999/xlink" viewBox="0 0 96.61 78.77"><defs><clipPath id="clip-path" transform="translate(-1.52 -11.42)"><rect width="100" height="100" fill="none"/></clipPath><clipPath id="clip-path-2" transform="translate(-1.52 -11.42)"><rect x="17.43" y="50.09" width="67.12" height="3.96" transform="matrix(0.5, -0.87, 0.87, 0.5, -19.62, 70.11)" fill="none"/></clipPath><clipPath id="clip-path-4" transform="translate(-1.52 -11.42)"><path d="M72,73.92,75,61.27l-8.6-2.1-.23.92a4.63,4.63,0,0,1-1.57,2.84,2.86,2.86,0,0,1-2.38.38,2.82,2.82,0,0,1-1.91-1.43,4.63,4.63,0,0,1-.08-3.25l1.77-7.25a4.63,4.63,0,0,1,1.57-2.84A2.86,2.86,0,0,1,66,48.18a2.91,2.91,0,0,1,2.17,2,6.1,6.1,0,0,1-.28,3.05L91.1,58.92a3.76,3.76,0,0,1,1.53-2.12,3.08,3.08,0,0,1,4.15,1.13,4.63,4.63,0,0,1,.08,3.25l-1.5,6a4.69,4.69,0,0,1-1.55,2.85,2.81,2.81,0,0,1-2.36.39A2.86,2.86,0,0,1,89.52,69a4.63,4.63,0,0,1-.08-3.25l.23-.92L81,62.72,77.9,75.37l8.68,2.12.23-.92a4.63,4.63,0,0,1,1.57-2.84,3.1,3.1,0,0,1,4.31,1.05A4.63,4.63,0,0,1,92.77,78l-1.5,6a4.69,4.69,0,0,1-1.55,2.85,2.81,2.81,0,0,1-2.36.39A2.86,2.86,0,0,1,85.52,86a3.76,3.76,0,0,1-.38-2.59L61.92,77.74a6.5,6.5,0,0,1-1.15,2.84,2.93,2.93,0,0,1-2.89.79A2.82,2.82,0,0,1,56,79.95a4.63,4.63,0,0,1-.08-3.25l1.77-7.25a4.63,4.63,0,0,1,1.57-2.84,2.86,2.86,0,0,1,2.38-.38,2.8,2.8,0,0,1,1.9,1.44,4.64,4.64,0,0,1,.09,3.23l-.23.92Z" fill="none"/></clipPath><clipPath id="clip-path-6" transform="translate(-1.52 -11.42)"><path d="M27.64,42.87l3-22.67-1.35.37a4.63,4.63,0,0,1-3.25,0,2.86,2.86,0,0,1-1.49-1.89,2.86,2.86,0,0,1,.32-2.39,4.63,4.63,0,0,1,2.8-1.65l7.89-2.12a4.69,4.69,0,0,1,3.24,0,2.81,2.81,0,0,1,1.48,1.88,3,3,0,0,1-.69,2.88A5.45,5.45,0,0,1,37,18.45L32.83,50.69l-5.65,1.54L7.24,26.58a5.53,5.53,0,0,1-2.85.28,2.92,2.92,0,0,1-2.06-2.12,2.86,2.86,0,0,1,.32-2.39,4.63,4.63,0,0,1,2.8-1.65l7.95-2.14a4.63,4.63,0,0,1,3.22,0,2.81,2.81,0,0,1,1.48,1.88,2.88,2.88,0,0,1-.3,2.38A4.57,4.57,0,0,1,15,24.46l-1.38.38Z" fill="none"/></clipPath></defs><title>verticality</title><g clip-path="url(#clip-path)"><path d="M77,26.11a36.76,36.76,0,1,1-52.06,0A36.64,36.64,0,0,1,77,26.11Z" transform="translate(-1.52 -11.42)" fill="none" stroke="#fff" stroke-linecap="round" stroke-linejoin="round" stroke-dashoffset="25" stroke-width="2.5" stroke-dasharray="125.02 0 125.02 0"/></g><g clip-path="url(#clip-path-2)"><g clip-path="url(#clip-path)"><rect x="17.43" y="50.09" width="67.12" height="3.96" transform="matrix(0.5, -0.87, 0.87, 0.5, -21.14, 58.69)" fill="#fff"/></g></g><g clip-path="url(#clip-path-4)"><g clip-path="url(#clip-path)"><rect x="58.82" y="50.76" width="35.18" height="36.14" transform="translate(-10.07 115.34) rotate(-76.3)" fill="#fff"/></g></g><g clip-path="url(#clip-path-6)"><g clip-path="url(#clip-path)"><rect x="5.58" y="15.96" width="39.32" height="36.14" transform="matrix(0.96, -0.26, 0.26, 0.96, -9.59, -3.57)" fill="#fff"/></g></g></svg>