<svg id="Layer_1" data-name="Layer 1" xmlns="http://www.w3.org/2000/svg" xmlns:xlink="http://www.w3.org/1999/xlink" viewBox="0 0 85.12 90.17"><defs><clipPath id="clip-path" transform="translate(-7.44 -4.91)"><path d="M91.92,54.8c.08-.43.14-.86.2-1.3,0-.23.07-.47.1-.71.05-.42.1-.83.14-1.25s.05-.65.08-1,.05-.67.07-1c0-.69.06-1.37.06-2.06s0-1.35-.05-2c0-.42-.06-.84-.09-1.26,0-.22,0-.44,0-.66,0-.54-.11-1.07-.18-1.6,0-.09,0-.17,0-.25-.08-.56-.17-1.12-.26-1.67l0-.11h0a42.58,42.58,0,0,0-38-34.82h-.08C53.17,5,52.58,5,52,5s-1.32-.05-2-.05-1.33,0-2,.05-1.18.07-1.77.12h-.08a42.58,42.58,0,0,0-38,34.82h0s0,.07,0,.11c-.1.55-.19,1.11-.26,1.67l0,.25c-.07.53-.13,1.06-.18,1.6,0,.22,0,.44,0,.66,0,.42-.07.84-.09,1.26,0,.67-.05,1.34-.05,2s0,1.34.05,2c0,.44.06.88.09,1.32,0,.2,0,.4,0,.6.05.55.12,1.1.19,1.65l0,.19c.08.59.18,1.18.28,1.77v0A42.58,42.58,0,0,0,42.43,89.35h0l.39.06,1.19.19.83.1,1.12.13,1.1.08L48,90Q49,90,50,90h.13V80.12H50a32.67,32.67,0,0,1-5.58-.49,86.85,86.85,0,0,1-3.48-16.88c2.94.18,6,.28,9.06.28h.13V57.38H50c-3.4,0-6.59-.11-9.58-.32-.2-3-.31-6.18-.31-9.58s.11-6.6.31-9.59c3-.2,6.19-.32,9.58-.32s6.58.11,9.56.31c0,.17,0,.34,0,.51A7,7,0,0,1,62,39.84L65.48,43c0-1.57-.13-3.1-.22-4.63a86.87,86.87,0,0,1,16.89,3.49,32.68,32.68,0,0,1,.49,5.58,32.29,32.29,0,0,1-.5,5.57c-1.33.43-2.79.86-4.38,1.26l3.33,3.07h0L89,64.6a43,43,0,0,0,2.9-9.55h0C91.89,55,91.9,54.88,91.92,54.8ZM38,17.15A103.08,103.08,0,0,0,35.2,32.69a102.72,102.72,0,0,0-15.54,2.76A32.81,32.81,0,0,1,38,17.15m0,60.67a32.82,32.82,0,0,1-18.3-18.3A102.81,102.81,0,0,0,35.2,62.28,103.1,103.1,0,0,0,38,77.82M34.72,56.55a86.81,86.81,0,0,1-16.88-3.48,32.22,32.22,0,0,1,0-11.16,86.72,86.72,0,0,1,16.88-3.49c-.18,2.94-.29,6-.29,9.07s.1,6.12.28,9.06M50,31.92c-3.1,0-6.13.1-9.06.28a86.8,86.8,0,0,1,3.48-16.88,32.19,32.19,0,0,1,11.14,0A87,87,0,0,1,59,32.2c-2.93-.18-5.95-.28-9-.28m14.79.76A103.13,103.13,0,0,0,62,17.14a32.81,32.81,0,0,1,18.3,18.3,103.17,103.17,0,0,0-15.55-2.76M57.21,45.05V90.42L68.88,78.75l8.48,16.33,6.16-3.18L75.35,76.17H91.12Z" fill="none"/></clipPath><clipPath id="clip-path-2" transform="translate(-7.44 -4.91)"><rect width="100" height="100" fill="none"/></clipPath></defs><title>web</title><g clip-path="url(#clip-path)"><g clip-path="url(#clip-path-2)"><rect width="85.12" height="90.17" fill="#fff"/></g></g></svg>